# xmcd CD database file
#
# Track frame offsets:
#	150
#	30180
#	39695
#	58875
#	72980
#	108612
#	120452
#	134172
#	172570
#	191325
#	220577
#
# Disc length: 3376 seconds
#
# Revision: 2
# Processed by: cddbd v1.5PL3 Copyright (c) Steve Scherf et al.
# Submitted via: CDex 1.51
#
DISCID=970d2e0b
DTITLE=Gary Moore - Blues for Greeny
DYEAR=1995
DGENRE=Blues
TTITLE0=If You Be My Baby
TTITLE1=Long Grey Mare
TTITLE2=Merry Go Round
TTITLE3=I Loved Another Woman
TTITLE4=Need Your Love So Bad
TTITLE5=The Same Way
TTITLE6=The Supernatural
TTITLE7=Driftin'
TTITLE8=Showbiz Blues
TTITLE9=Love That Burns
TTITLE10=Looking For Somebody
EXTD=YEAR: 1995
EXTT0=
EXTT1=
EXTT2=
EXTT3=
EXTT4=
EXTT5=
EXTT6=
EXTT7=
EXTT8=
EXTT9=
EXTT10=
PLAYORDER=
